# AST/ASF file generated using VICON BodyLanguage
# -----------------------------------------------
:version 1.10
:name VICON
:units
  mass 1.0
  length 0.45
  angle deg
:documentation
   .ast/.asf automatically generated from VICON data using
   VICON BodyBuilder and BodyLanguage model FoxedUp or BRILLIANT.MOD
:root
   order TX TY TZ RX RY RZ
   axis XYZ
   position 0 0 0  
   orientation 0 0 0 
:bonedata
  begin
     id 1 
     name lhipjoint
     direction 0.611804 -0.747784 0.257906 
     length 2.29243 
     axis 0 0 0  XYZ
  end
  begin
     id 2 
     name lfemur
     direction 0.34202 -0.939693 0  
     length 7.31159  
     axis 0 0 20  XYZ
    dof rx ry rz
    limits (-160.0 20.0)
           (-70.0 70.0)
           (-60.0 70.0)
  end
  begin
     id 3 
     name ltibia
     direction 0.34202 -0.939693 0   
     length 7.33391   
     axis 0 0 20   XYZ
    dof rx
    limits (-10.0 170.0)
  end
  begin
     id 4 
     name lfoot
     direction 0.122263 -0.335914 0.933924   
     length 1.76083   
     axis -90 7.62852e-016 20   XYZ
    dof rx rz
    limits (-45.0 90.0)
           (-70.0 20.0)
  end
  begin
     id 5 
     name ltoes
     direction 1.53533e-011 -4.2177e-011 1   
     length 0.879206   
     axis -90 7.62852e-016 20   XYZ
    dof rx
    limits (-90.0 20.0)
  end
  begin
     id 6 
     name rhipjoint
     direction -0.646469 -0.721248 0.248754   
     length 2.37677  
     axis 0 0 0  XYZ 
  end
  begin
     id 7 
     name rfemur
     direction -0.34202 -0.939693 0   
     length 7.18623   
     axis 0 0 -20   XYZ
    dof rx ry rz
    limits (-160.0 20.0)
           (-70.0 70.0)
           (-70.0 60.0)
  end
  begin
     id 8 
     name rtibia
     direction -0.34202 -0.939693 0   
     length 7.36567   
     axis 0 0 -20   XYZ
    dof rx
    limits (-10.0 170.0)
 end
 begin
     id 9 
     name rfoot
     direction -0.126681 -0.348054 0.928876   
     length 1.71902  
     axis -90 -7.62852e-016 -20   XYZ
    dof rx rz
    limits (-45.0 90.0)
           (-20.0 70.0)
  end
  begin
     id 10 
     name rtoes
     direction -1.53551e-011 -4.21898e-011 1   
     length 0.857792   
     axis -90 -7.62852e-016 -20   XYZ
    dof rx
    limits (-90.0 20.0)
  end
  begin
     id 11 
     name lowerback
     direction 0.0106509 0.999778 0.0181844   
     length 2.07668   
     axis 0 0 0   XYZ
    dof rx ry rz
    limits (-20.0 45.0)
           (-30.0 30.0)
           (-30.0 30.0)
  end
  begin
     id 12 
     name upperback
     direction -0.00456018 0.999989 -0.000590935   
     length 2.08011   
     axis 0 0 0   XYZ
    dof rx ry rz
    limits (-20.0 45.0)
           (-30.0 30.0)
           (-30.0 30.0)
  end
  begin
     id 13 
     name thorax
     direction -0.00910382 0.999916 -0.00923765   
     length 2.07397   
     axis 0 0 0   XYZ
    dof rx ry rz
    limits (-20.0 45.0)
           (-30.0 30.0)
           (-30.0 30.0)
  end
  begin
     id 14 
     name lowerneck
     direction 0.00171967 0.99778 0.0665733   
     length 1.67556   
     axis 0 0 0   XYZ
    dof rx ry rz
    limits (-20.0 45.0)
           (-30.0 30.0)
           (-30.0 30.0)
  end
  begin
     id 15 
     name upperneck
     direction -0.0143166 0.991302 -0.130828   
     length 1.68462   
     axis 0 0 0   XYZ
    dof rx ry rz
    limits (-20.0 45.0)
           (-30.0 30.0)
           (-30.0 30.0)
  end
  begin
     id 16
     name head
     direction -0.00606378 0.998665 -0.0512995  
     length 1.69269  
     axis 0 0 0   XYZ
    dof rx ry rz
    limits (-20.0 45.0)
           (-30.0 30.0)
           (-30.0 30.0)
  end
  begin
     id 17 
     name lclavicle
     direction 0.9638 0.179341 0.197297  
     length 4.12888  
     axis 0 0 0   XYZ
    dof ry rz
    limits (-20.0 10.0)
           (0.0 20.0)
  end
  begin
     id 18 
     name lhumerus
     direction 1 -4.48972e-011 -2.47351e-027   
     length 5.01834   
     axis -180 -30 -90   XYZ
    dof rx ry rz
    limits (-60.0 90.0)
           (-90.0 90.0)
           (-90.0 90.0)
  end
  begin
     id 19
     name lradius
     direction 1 -4.48965e-011 1.51591e-026   
     length 3.4869   
     axis -180 -30 -90   XYZ
    dof rx
    limits (-10.0 170.0)
  end
  begin
     id 20
     name lwrist
     direction 1 -4.48957e-011 2.70032e-026   
     length 1.74345   
     axis -1.81515e-014 90 90   XYZ
    dof ry
    limits (-180.0 0.0)
 end
  begin
     id 21 
     name lhand
     direction 1 -4.48951e-011 5.40064e-026   
     length 0.76799   
     axis -3.44607e-014 90 90   XYZ
    dof rx rz
    limits (-90.0 90.0)
           (-45.0 45.0)
  end
  begin
     id 22 
     name lfingers
     direction 1 -4.48971e-011 1.08013e-025   
     length 0.619174   
     axis -6.89214e-014 90 90   XYZ
    dof rx
    limits (0.0 90.0)
  end
  begin
     id 23
     name lthumb
     direction 0.707107 -6.34931e-011 0.707107   
     length 0.889013   
     axis -90 45 2.85299e-015   XYZ
    dof rx rz
    limits (-45.0 45.0)
           (-45.0 45.0)
  end
  begin
     id 24 
     name rclavicle
     direction -0.961409 0.252588 0.109054   
     length 4.04305  
     axis 0 0 0   XYZ 
    dof ry rz
    limits (-10.0 20.0)
           (-20.0 0.0)
  end
  begin
     id 25 
     name rhumerus
     direction -1 -4.4897e-011 1.33872e-017  
     length 4.70164   
     axis -180 30 90   XYZ
    dof rx ry rz
    limits (-90.0 60.0)
           (-90.0 90.0)
           (-90.0 90.0)
  end
  begin
     id 26 
     name rradius
     direction -1 -4.48954e-011 1.83844e-026   
     length 3.49911   
     axis -180 30 90   XYZ
    dof rx
    limits (-10.0 170.0)
  end
  begin
     id 27 
     name rwrist
     direction -1 -4.49008e-011 2.70032e-026   
     length 1.74955   
     axis -1.81515e-014 -90 -90   XYZ
    dof ry
    limits (-180.0 0.0)
  end
  begin
     id 28
     name rhand
     direction -1 -4.48916e-011 5.40064e-026   
     length 0.739335   
     axis -3.44607e-014 -90 -90   XYZ
    dof rx rz
    limits (-90.0 90.0)
           (-45.0 45.0)
  end
  begin
     id 29
     name rfingers
     direction -1 -4.48987e-011 1.08013e-025   
     length 0.596071   
     axis -6.89214e-014 -90 -90   XYZ
    dof rx
    limits (0.0 90.0)
  end
  begin
     id 30
     name rthumb
     direction -0.707107 -6.34935e-011 0.707107   
     length 0.855843   
     axis -90 -45 -2.85299e-015   XYZ
    dof rx rz
    limits (-45.0 45.0)
           (-45.0 45.0)
  end
:hierarchy
  begin
    root lhipjoint rhipjoint lowerback
    lhipjoint lfemur
    lfemur ltibia
    ltibia lfoot
    lfoot ltoes
    rhipjoint rfemur
    rfemur rtibia
    rtibia rfoot
    rfoot rtoes
    lowerback upperback
    upperback thorax
    thorax lowerneck lclavicle rclavicle
    lowerneck upperneck
    upperneck head
    lclavicle lhumerus
    lhumerus lradius
    lradius lwrist
    lwrist lhand lthumb
    lhand lfingers
    rclavicle rhumerus
    rhumerus rradius
    rradius rwrist
    rwrist rhand rthumb
    rhand rfingers
  end

#!OML:ASF I:\salsa\salsa 7_09\Patient 1\Session 1\dancermale.ASF
:FULLY-SPECIFIED
:DEGREES
631
root 4.22549 16.4737 -9.36136 188.004 172.706 175.461
lowerback 3.57415 -0.754811 2.31069
upperback -0.0346887 -0.899672 0.446361
thorax -2.06779 -0.470102 -0.789381
lowerneck -7.53127 -8.01995 -4.25205
upperneck 10.4596 -10.9488 5.45812
head 4.91033 -5.2263 1.61879
rclavicle -3.08116e-015 1.63003e-014
rhumerus -15.3294 -1.95149 -67.8644
rradius 91.4656
rwrist -40.6714
rhand -6.41734 -6.23655
rfingers 7.12502
rthumb 19.4311 -35.2857
lclavicle -3.08116e-015 1.63003e-014
lhumerus -45.3048 -46.9892 120.867
lradius 67.4457
lwrist 18.8658
lhand -11.6231 53.6094
lfingers 7.12502
lthumb 14.4201 1163.09
rfemur -30.2146 -14.097 -4.18521
rtibia 44.6354
rfoot 1.23248 -15.8108
rtoes 3.26541
lfemur -32.6698 10.4542 -10.9795
ltibia 48.8968
lfoot -23.9321 17.4712
ltoes -9.62511
632
root 4.05537 16.4575 -9.33772 187.624 172.318 175.422
lowerback 3.6405 -0.690565 1.96684
upperback 0.128335 -0.830173 0.391189
thorax -1.93112 -0.430012 -0.657638
lowerneck -7.66666 -7.97898 -4.38833
upperneck 10.8416 -10.9118 5.6007
head 5.06484 -5.19597 1.6726
rclavicle 6.95746e-015 3.97569e-015
rhumerus -18.2734 -0.501194 -67.8926
rradius 94.6222
rwrist -44.262
rhand -2.15194 -6.02485
rfingers 7.12502
rthumb 23.5277 -34.6059
lclavicle 6.95746e-015 3.97569e-015
lhumerus -45.0092 -47.1795 121.406
lradius 67.4195
lwrist 18.2671
lhand -11.5506 52.9639
lfingers 7.12502
lthumb 14.4901 1162.44
rfemur -29.2415 -13.0534 -4.27205
rtibia 45.0148
rfoot 1.36336 -16.148
rtoes 1.32766
lfemur -32.279 10.5677 -10.1755
ltibia 48.8174
lfoot -23.8264 17.1608
ltoes -10.2225
633
root 3.88444 16.4378 -9.31893 187.557 171.541 175.627
lowerback 3.42035 -0.672978 1.69624
upperback 0.224479 -0.827207 0.216753
thorax -1.70761 -0.424698 -0.688531
lowerneck -7.91098 -7.96876 -4.52692
upperneck 11.3692 -10.9177 5.7181
head 5.28408 -5.18325 1.70896
rclavicle -1.5704e-014 -1.23246e-014
rhumerus -21.0382 0.44372 -68.0621
rradius 97.3392
rwrist -48.4039
rhand 1.83982 -5.51586
rfingers 7.12502
rthumb 27.3514 -33.5513
lclavicle -1.5704e-014 -1.23246e-014
lhumerus -44.8302 -47.4847 121.915
lradius 67.6578
lwrist 18.6611
lhand -12.5655 52.7165
lfingers 7.12502
lthumb 13.512 1162.26
rfemur -28.46 -12.8655 -4.38671
rtibia 45.4754
rfoot 1.60282 -13.0979
rtoes -3.81218
lfemur -32.3739 10.3616 -9.70515
ltibia 48.7478
lfoot -23.6379 16.8014
ltoes -11.1017
634
root 3.69784 16.4223 -9.29606 187.356 171.128 176.079
lowerback 3.48286 -0.519993 1.21965
upperback 0.289946 -0.647181 -0.11838
thorax -1.66952 -0.331883 -0.77368
lowerneck -8.14977 -7.88952 -4.64309
upperneck 12.0131 -10.8466 5.87898
head 5.5366 -5.12706 1.76076
rclavicle -8.64713e-015 2.06736e-014
rhumerus -23.7429 1.3234 -68.5597
rradius 99.7441
rwrist -52.8678
rhand 3.40485 -4.68988
rfingers 7.12502
rthumb 28.8473 -32.4798
lclavicle -8.64713e-015 2.06736e-014
lhumerus -44.6029 -47.4708 121.956
lradius 68.0865
lwrist 18.265
lhand -12.4377 51.8926
lfingers 7.12502
lthumb 13.6351 1161.43
rfemur -27.7116 -12.6858 -4.42989
rtibia 46.0376
rfoot 2.12125 -9.2867
rtoes -14.1308
lfemur -31.9873 10.5802 -9.40928
ltibia 48.3349
lfoot -23.3738 16.2526
ltoes -12.5286
635
root 3.50489 16.4061 -9.28001 187.425 170.485 176.58
lowerback 3.38135 -0.414682 0.895856
upperback 0.253884 -0.526923 -0.502479
thorax -1.6476 -0.270843 -0.992476
lowerneck -8.40309 -7.74596 -4.64407
upperneck 12.6844 -10.6936 5.95622
head 5.78558 -5.03 1.77699
rclavicle 5.96354e-015 2.70347e-014
rhumerus -26.1166 1.44355 -69.0752
rradius 100.681
rwrist -52.4263
rhand 7.75281 -1.46673
rfingers 7.12502
rthumb 32.992 -28.4686
lclavicle 5.96354e-015 2.70347e-014
lhumerus -44.5083 -47.3715 121.878
lradius 68.8208
lwrist 18.0348
lhand -13.331 51.0874
lfingers 7.12502
lthumb 12.7741 1160.68
rfemur -27.1659 -13.1785 -4.17597
rtibia 46.7822
rfoot 1.04543 -7.59315
rtoes -16.7463
lfemur -32.028 10.8208 -9.20836
ltibia 47.9488
lfoot -22.9526 15.5779
ltoes -14.795
636
root 3.30619 16.3903 -9.2689 187.747 169.587 176.954
lowerback 3.14405 -0.333203 0.925979
upperback 0.0911748 -0.426215 -0.920666
thorax -1.68257 -0.223308 -1.44409
lowerneck -8.73398 -7.58778 -4.46275
upperneck 13.4541 -10.5446 5.99008
head 6.06804 -4.92489 1.74829
rclavicle 7.15625e-015 1.98785e-014
rhumerus -28.4624 1.23684 -69.9314
rradius 101.54
rwrist -50.7409
rhand 8.03976 0.114557
rfingers 7.12502
rthumb 33.2648 -26.8294
lclavicle 7.15625e-015 1.98785e-014
lhumerus -44.7657 -47.3446 121.771
lradius 70.0187
lwrist 18.094
lhand -15.5589 50.099
lfingers 7.12502
lthumb 10.6256 1159.81
rfemur -26.8389 -14.4365 -3.41856
rtibia 47.7181
rfoot -0.825378 -8.37032
rtoes -14.8397
lfemur -32.5364 11.148 -8.9016
ltibia 47.6419
lfoot -22.4626 14.7717
ltoes -17.2916
637
root 3.09863 16.3752 -9.25812 188.051 168.661 177.343
lowerback 3.00665 -0.245723 1.08768
upperback -0.0935144 -0.313772 -1.40594
thorax -1.79525 -0.172523 -2.03899
lowerneck -9.05283 -7.38668 -4.21158
upperneck 14.1777 -10.3493 6.03347
head 6.3302 -4.79273 1.71871
rclavicle -3.76697e-014 1.35174e-014
rhumerus -30.5366 0.361293 -70.8829
rradius 101.426
rwrist -45.8202
rhand 7.56479 1.30887
rfingers 7.12502
rthumb 32.8131 -25.7306
lclavicle -3.76697e-014 1.35174e-014
lhumerus -45.1363 -47.1683 121.377
lradius 71.6894
lwrist 18.0476
lhand -17.6728 48.3004
lfingers 7.12502
lthumb 8.58611 1158.11
rfemur -26.4783 -16.005 -2.44079
rtibia 48.6629
rfoot -2.66391 -10.5262
rtoes -15.3265
lfemur -32.9835 11.6747 -8.57966
ltibia 47.1991
lfoot -21.9298 13.8236
ltoes -20.2391
638
root 2.87931 16.3592 -9.24999 188.357 167.77 177.867
lowerback 2.91911 -0.173221 1.15679
upperback -0.257606 -0.225071 -1.90495
thorax -1.9134 -0.133543 -2.59608
lowerneck -9.36632 -7.10373 -3.93447
upperneck 14.7914 -10.0203 5.94942
head 6.54313 -4.60541 1.66125
rclavicle -2.90226e-014 1.35174e-014
rhumerus -32.2565 -0.426189 -71.9664
rradius 100.715
rwrist -40.3333
rhand 3.36605 1.80153
rfingers 7.12502
rthumb 28.8103 -25.9947
lclavicle -2.90226e-014 1.35174e-014
lhumerus -45.3448 -46.6302 120.573
lradius 73.8344
lwrist 17.3681
lhand -18.5058 46.134
lfingers 7.12502
lthumb 7.78212 1155.97
rfemur -26.0972 -17.5599 -1.47634
rtibia 49.3246
rfoot -4.89166 -13.7305
rtoes -16.5907
lfemur -33.3821 12.419 -8.39444
ltibia 46.6762
lfoot -21.2873 12.7297
ltoes -23.3718
639
root 2.65129 16.3413 -9.24532 188.769 166.97 178.642
lowerback 2.84688 -0.137359 0.981501
upperback -0.456978 -0.194953 -2.40416
thorax -2.07769 -0.122489 -3.01451
lowerneck -9.63584 -6.71937 -3.78172
upperneck 15.3576 -9.53302 5.87444
head 6.73399 -4.34969 1.64525
rclavicle -4.92986e-014 1.59028e-015
rhumerus -33.6362 -0.685797 -73.07
rradius 99.5399
rwrist -35.3201
rhand -4.30803 0.57707
rfingers 7.12502
rthumb 21.4581 -28.2545
lclavicle -4.92986e-014 1.59028e-015
lhumerus -45.3752 -45.5822 119.438
lradius 76.3896
lwrist 15.9555
lhand -21.2283 44.8331
lfingers 7.12502
lthumb 5.15391 1154.75
rfemur -25.8709 -18.9407 -0.685222
rtibia 49.5055
rfoot -7.71497 -17.4951
rtoes -17.826
lfemur -33.9101 13.4343 -8.5302
ltibia 46.2938
lfoot -20.7627 11.4133
ltoes -25.8979
640
root 2.41709 16.3086 -9.25137 189.014 166.21 179.028
lowerback 2.91203 -0.106031 1.40327
upperback -0.588908 -0.149564 -2.90436
thorax -2.25085 -0.111532 -3.77423
lowerneck -9.86011 -6.32403 -3.60415
upperneck 15.7265 -9.05734 5.99048
head 6.86443 -4.08795 1.69002
rclavicle -2.56432e-014 -2.62396e-014
rhumerus -34.63 -1.31601 -73.893
rradius 97.8883
rwrist -34.8377
rhand -8.92747 -1.36154
rfingers 7.12502
rthumb 17.0163 -30.6362
lclavicle -2.56432e-014 -2.62396e-014
lhumerus -45.1003 -44.4229 117.767
lradius 79.1308
lwrist 14.2515
lhand -22.8174 43.8892
lfingers 7.12502
lthumb 3.61942 1153.84
rfemur -25.6457 -19.9419 0.519398
rtibia 49.0709
rfoot -11.4563 -20.312
rtoes -17.2908
lfemur -34.5229 14.7654 -8.20036
ltibia 46.1874
lfoot -20.646 9.84242
ltoes -27.4092
641
root 2.17948 16.2609 -9.26074 189.404 165.613 179.558
lowerback 2.84603 0.013681 1.76631
upperback -0.687744 0.0105604 -3.49596
thorax -2.30477 -0.0421478 -4.60509
lowerneck -10.023 -5.82501 -3.5272
upperneck 15.8146 -8.40605 6.10451
head 6.88949 -3.75489 1.77333
rclavicle 9.74045e-015 3.18055e-015
rhumerus -35.498 -1.97808 -74.638
rradius 96.1842
rwrist -35.4376
rhand -12.1038 -3.67492
rfingers 7.12502
rthumb 13.957 -33.1865
lclavicle 9.74045e-015 3.18055e-015
lhumerus -44.4268 -43.3886 115.693
lradius 81.9067
lwrist 12.7979
lhand -27.5968 43.5256
lfingers 7.12502
lthumb -0.996463 1153.5
rfemur -25.6984 -20.6738 1.44919
rtibia 48.5611
rfoot -15.0628 -22.6875
rtoes -14.77
lfemur -35.3702 16.3435 -8.03868
ltibia 46.3114
lfoot -20.5907 7.94948
ltoes -28.0559
